<mxfile host="app.diagrams.net" modified="2024-05-28T02:34:12.261Z" agent="Mozilla/5.0 (Windows NT 10.0; Win64; x64) AppleWebKit/537.36 (KHTML, like Gecko) Chrome/123.0.0.0 Safari/537.36 OPR/109.0.0.0" etag="CUJWSrM7CUK4YuhSCWnN" version="24.4.8" type="device">
  <diagram name="Página-1" id="q6Va7x8PH-jpRftSbNmV">
    <mxGraphModel dx="2392" dy="2452" grid="1" gridSize="10" guides="1" tooltips="1" connect="1" arrows="1" fold="1" page="1" pageScale="1" pageWidth="850" pageHeight="1100" math="0" shadow="0">
      <root>
        <mxCell id="0" />
        <mxCell id="1" parent="0" />
        <mxCell id="bfMk7Fe9KB9iAYGMGyOv-1" value="" style="ellipse;whiteSpace=wrap;html=1;" vertex="1" parent="1">
          <mxGeometry x="694" y="335" width="120" height="80" as="geometry" />
        </mxCell>
        <mxCell id="bfMk7Fe9KB9iAYGMGyOv-2" value="FUNCIONÁRIO" style="shape=umlActor;verticalLabelPosition=bottom;verticalAlign=top;html=1;outlineConnect=0;" vertex="1" parent="1">
          <mxGeometry x="1400" y="310" width="60" height="110" as="geometry" />
        </mxCell>
        <mxCell id="bfMk7Fe9KB9iAYGMGyOv-3" value="" style="ellipse;whiteSpace=wrap;html=1;" vertex="1" parent="1">
          <mxGeometry x="1128.5" y="330" width="140" height="90" as="geometry" />
        </mxCell>
        <mxCell id="bfMk7Fe9KB9iAYGMGyOv-4" value="Faz o cadastro no sistema" style="text;html=1;align=center;verticalAlign=middle;whiteSpace=wrap;rounded=0;" vertex="1" parent="1">
          <mxGeometry x="1153.5" y="350" width="90" height="50" as="geometry" />
        </mxCell>
        <mxCell id="bfMk7Fe9KB9iAYGMGyOv-5" value="" style="ellipse;whiteSpace=wrap;html=1;" vertex="1" parent="1">
          <mxGeometry x="897.5" y="480" width="190" height="110" as="geometry" />
        </mxCell>
        <mxCell id="bfMk7Fe9KB9iAYGMGyOv-6" value="Insere os lanches disponíveis" style="text;html=1;align=center;verticalAlign=middle;whiteSpace=wrap;rounded=0;" vertex="1" parent="1">
          <mxGeometry x="912.5" y="515" width="160" height="40" as="geometry" />
        </mxCell>
        <mxCell id="bfMk7Fe9KB9iAYGMGyOv-7" value="" style="ellipse;whiteSpace=wrap;html=1;" vertex="1" parent="1">
          <mxGeometry x="920" y="330" width="140" height="90" as="geometry" />
        </mxCell>
        <mxCell id="bfMk7Fe9KB9iAYGMGyOv-8" value="Pode atualizar os lanches se caso o estoque esgotar" style="text;html=1;align=center;verticalAlign=middle;whiteSpace=wrap;rounded=0;" vertex="1" parent="1">
          <mxGeometry x="699" y="345" width="115" height="60" as="geometry" />
        </mxCell>
        <mxCell id="bfMk7Fe9KB9iAYGMGyOv-9" value="" style="ellipse;whiteSpace=wrap;html=1;" vertex="1" parent="1">
          <mxGeometry x="893.75" y="150" width="197.5" height="110" as="geometry" />
        </mxCell>
        <mxCell id="bfMk7Fe9KB9iAYGMGyOv-10" value="Deletar Lanche" style="text;html=1;align=center;verticalAlign=middle;whiteSpace=wrap;rounded=0;" vertex="1" parent="1">
          <mxGeometry x="921.25" y="160" width="142.5" height="90" as="geometry" />
        </mxCell>
        <mxCell id="bfMk7Fe9KB9iAYGMGyOv-11" value="GERENTE&lt;div&gt;&lt;br&gt;&lt;/div&gt;" style="shape=umlActor;verticalLabelPosition=bottom;verticalAlign=top;html=1;outlineConnect=0;" vertex="1" parent="1">
          <mxGeometry x="180" y="-400" width="60" height="110" as="geometry" />
        </mxCell>
        <mxCell id="bfMk7Fe9KB9iAYGMGyOv-12" value="" style="ellipse;whiteSpace=wrap;html=1;" vertex="1" parent="1">
          <mxGeometry x="524" y="-385" width="120" height="80" as="geometry" />
        </mxCell>
        <mxCell id="bfMk7Fe9KB9iAYGMGyOv-13" value="Insere os funcionários no sistema" style="text;html=1;align=center;verticalAlign=middle;whiteSpace=wrap;rounded=0;" vertex="1" parent="1">
          <mxGeometry x="554" y="-360" width="60" height="30" as="geometry" />
        </mxCell>
        <mxCell id="bfMk7Fe9KB9iAYGMGyOv-14" value="" style="ellipse;whiteSpace=wrap;html=1;" vertex="1" parent="1">
          <mxGeometry x="330" y="-390" width="140" height="90" as="geometry" />
        </mxCell>
        <mxCell id="bfMk7Fe9KB9iAYGMGyOv-15" value="Faz o cadastro como administrador no sistema" style="text;html=1;align=center;verticalAlign=middle;whiteSpace=wrap;rounded=0;" vertex="1" parent="1">
          <mxGeometry x="355" y="-370" width="90" height="50" as="geometry" />
        </mxCell>
        <mxCell id="bfMk7Fe9KB9iAYGMGyOv-16" value="" style="ellipse;whiteSpace=wrap;html=1;" vertex="1" parent="1">
          <mxGeometry x="694" y="-400" width="190" height="110" as="geometry" />
        </mxCell>
        <mxCell id="bfMk7Fe9KB9iAYGMGyOv-17" value="Insere os lanches disponíveis ao banco de dados" style="text;html=1;align=center;verticalAlign=middle;whiteSpace=wrap;rounded=0;" vertex="1" parent="1">
          <mxGeometry x="709" y="-365" width="160" height="40" as="geometry" />
        </mxCell>
        <mxCell id="bfMk7Fe9KB9iAYGMGyOv-18" value="" style="ellipse;whiteSpace=wrap;html=1;" vertex="1" parent="1">
          <mxGeometry x="690.25" y="-210" width="197.5" height="110" as="geometry" />
        </mxCell>
        <mxCell id="bfMk7Fe9KB9iAYGMGyOv-19" value="Deletar Lanche" style="text;html=1;align=center;verticalAlign=middle;whiteSpace=wrap;rounded=0;" vertex="1" parent="1">
          <mxGeometry x="720.25" y="-200" width="142.5" height="90" as="geometry" />
        </mxCell>
        <mxCell id="bfMk7Fe9KB9iAYGMGyOv-20" value="" style="ellipse;whiteSpace=wrap;html=1;" vertex="1" parent="1">
          <mxGeometry x="956" y="-385" width="120" height="80" as="geometry" />
        </mxCell>
        <mxCell id="bfMk7Fe9KB9iAYGMGyOv-21" value="Visualiza os lanches" style="text;html=1;align=center;verticalAlign=middle;whiteSpace=wrap;rounded=0;" vertex="1" parent="1">
          <mxGeometry x="986" y="-360" width="60" height="30" as="geometry" />
        </mxCell>
        <mxCell id="bfMk7Fe9KB9iAYGMGyOv-22" value="Visualiza os lanches" style="text;html=1;align=center;verticalAlign=middle;whiteSpace=wrap;rounded=0;" vertex="1" parent="1">
          <mxGeometry x="962.5" y="360" width="60" height="30" as="geometry" />
        </mxCell>
        <mxCell id="bfMk7Fe9KB9iAYGMGyOv-23" value="" style="ellipse;whiteSpace=wrap;html=1;" vertex="1" parent="1">
          <mxGeometry x="719" y="-560" width="140" height="90" as="geometry" />
        </mxCell>
        <mxCell id="bfMk7Fe9KB9iAYGMGyOv-24" value="Atualizar os lanches" style="text;html=1;align=center;verticalAlign=middle;whiteSpace=wrap;rounded=0;" vertex="1" parent="1">
          <mxGeometry x="734" y="-545" width="115" height="60" as="geometry" />
        </mxCell>
        <mxCell id="bfMk7Fe9KB9iAYGMGyOv-25" value="ALUNO&lt;div&gt;&lt;br&gt;&lt;/div&gt;" style="shape=umlActor;verticalLabelPosition=bottom;verticalAlign=top;html=1;outlineConnect=0;" vertex="1" parent="1">
          <mxGeometry x="40" y="830" width="60" height="110" as="geometry" />
        </mxCell>
        <mxCell id="bfMk7Fe9KB9iAYGMGyOv-26" value="" style="ellipse;whiteSpace=wrap;html=1;" vertex="1" parent="1">
          <mxGeometry x="190" y="845" width="120" height="80" as="geometry" />
        </mxCell>
        <mxCell id="bfMk7Fe9KB9iAYGMGyOv-27" value="Cria a sua conta no sistema" style="text;html=1;align=center;verticalAlign=middle;whiteSpace=wrap;rounded=0;" vertex="1" parent="1">
          <mxGeometry x="220" y="870" width="60" height="30" as="geometry" />
        </mxCell>
        <mxCell id="bfMk7Fe9KB9iAYGMGyOv-28" value="" style="ellipse;whiteSpace=wrap;html=1;" vertex="1" parent="1">
          <mxGeometry x="370" y="845" width="120" height="80" as="geometry" />
        </mxCell>
        <mxCell id="bfMk7Fe9KB9iAYGMGyOv-29" value="Visualiza os lanches disponíveis&amp;nbsp;" style="text;html=1;align=center;verticalAlign=middle;whiteSpace=wrap;rounded=0;" vertex="1" parent="1">
          <mxGeometry x="400" y="870" width="60" height="30" as="geometry" />
        </mxCell>
        <mxCell id="bfMk7Fe9KB9iAYGMGyOv-30" value="" style="ellipse;whiteSpace=wrap;html=1;" vertex="1" parent="1">
          <mxGeometry x="554" y="905" width="120" height="80" as="geometry" />
        </mxCell>
        <mxCell id="bfMk7Fe9KB9iAYGMGyOv-31" value="Faz a compra do lanche desejado" style="text;html=1;align=center;verticalAlign=middle;whiteSpace=wrap;rounded=0;" vertex="1" parent="1">
          <mxGeometry x="584" y="930" width="60" height="30" as="geometry" />
        </mxCell>
        <mxCell id="bfMk7Fe9KB9iAYGMGyOv-32" value="" style="ellipse;whiteSpace=wrap;html=1;" vertex="1" parent="1">
          <mxGeometry x="554" y="765" width="120" height="80" as="geometry" />
        </mxCell>
        <mxCell id="bfMk7Fe9KB9iAYGMGyOv-33" value="Escolhe uma forma de pagamento" style="text;html=1;align=center;verticalAlign=middle;whiteSpace=wrap;rounded=0;" vertex="1" parent="1">
          <mxGeometry x="584" y="790" width="60" height="30" as="geometry" />
        </mxCell>
        <mxCell id="bfMk7Fe9KB9iAYGMGyOv-34" value="" style="ellipse;whiteSpace=wrap;html=1;" vertex="1" parent="1">
          <mxGeometry x="740" y="830" width="170" height="110" as="geometry" />
        </mxCell>
        <mxCell id="bfMk7Fe9KB9iAYGMGyOv-35" value="Retira o lanche na cantina logo após efetuado o pagamento" style="text;html=1;align=center;verticalAlign=middle;whiteSpace=wrap;rounded=0;" vertex="1" parent="1">
          <mxGeometry x="783" y="870" width="86" height="30" as="geometry" />
        </mxCell>
        <mxCell id="bfMk7Fe9KB9iAYGMGyOv-36" value="" style="ellipse;whiteSpace=wrap;html=1;" vertex="1" parent="1">
          <mxGeometry x="200" y="620" width="120" height="80" as="geometry" />
        </mxCell>
        <mxCell id="bfMk7Fe9KB9iAYGMGyOv-37" value="EXTENDS" style="html=1;verticalAlign=bottom;endArrow=open;dashed=1;endSize=8;curved=0;rounded=0;" edge="1" parent="1">
          <mxGeometry relative="1" as="geometry">
            <mxPoint x="255" y="820" as="sourcePoint" />
            <mxPoint x="255" y="730" as="targetPoint" />
          </mxGeometry>
        </mxCell>
        <mxCell id="bfMk7Fe9KB9iAYGMGyOv-38" value="Sair de sua conta" style="text;html=1;align=center;verticalAlign=middle;whiteSpace=wrap;rounded=0;" vertex="1" parent="1">
          <mxGeometry x="230" y="645" width="60" height="30" as="geometry" />
        </mxCell>
        <mxCell id="bfMk7Fe9KB9iAYGMGyOv-39" value="" style="endArrow=none;html=1;rounded=0;" edge="1" parent="1">
          <mxGeometry width="50" height="50" relative="1" as="geometry">
            <mxPoint x="1286" y="365" as="sourcePoint" />
            <mxPoint x="1380" y="365" as="targetPoint" />
          </mxGeometry>
        </mxCell>
        <mxCell id="bfMk7Fe9KB9iAYGMGyOv-40" value="INCLUDE" style="html=1;verticalAlign=bottom;endArrow=open;dashed=1;endSize=8;curved=0;rounded=0;" edge="1" parent="1">
          <mxGeometry relative="1" as="geometry">
            <mxPoint x="1200" y="430" as="sourcePoint" />
            <mxPoint x="1073" y="400" as="targetPoint" />
            <Array as="points">
              <mxPoint x="1180" y="460" />
            </Array>
          </mxGeometry>
        </mxCell>
        <mxCell id="bfMk7Fe9KB9iAYGMGyOv-41" value="" style="endArrow=none;html=1;rounded=0;" edge="1" parent="1">
          <mxGeometry width="50" height="50" relative="1" as="geometry">
            <mxPoint x="230" y="-345.66999999999996" as="sourcePoint" />
            <mxPoint x="324" y="-345.66999999999996" as="targetPoint" />
          </mxGeometry>
        </mxCell>
        <mxCell id="bfMk7Fe9KB9iAYGMGyOv-42" value="INCLUDE" style="html=1;verticalAlign=bottom;endArrow=open;dashed=1;endSize=8;curved=0;rounded=0;" edge="1" parent="1">
          <mxGeometry relative="1" as="geometry">
            <mxPoint x="430" y="-410" as="sourcePoint" />
            <mxPoint x="560" y="-400" as="targetPoint" />
            <Array as="points">
              <mxPoint x="490" y="-440" />
            </Array>
          </mxGeometry>
        </mxCell>
        <mxCell id="bfMk7Fe9KB9iAYGMGyOv-43" value="" style="endArrow=none;html=1;rounded=0;" edge="1" parent="1">
          <mxGeometry width="50" height="50" relative="1" as="geometry">
            <mxPoint x="250" y="-304.99999999999994" as="sourcePoint" />
            <mxPoint x="550" y="-290" as="targetPoint" />
            <Array as="points">
              <mxPoint x="450" y="-190" />
            </Array>
          </mxGeometry>
        </mxCell>
        <mxCell id="bfMk7Fe9KB9iAYGMGyOv-44" value="" style="endArrow=none;html=1;rounded=0;" edge="1" parent="1">
          <mxGeometry width="50" height="50" relative="1" as="geometry">
            <mxPoint x="240" y="-399.99999999999994" as="sourcePoint" />
            <mxPoint x="720" y="-410" as="targetPoint" />
            <Array as="points">
              <mxPoint x="390" y="-580" />
              <mxPoint x="680" y="-430" />
            </Array>
          </mxGeometry>
        </mxCell>
        <mxCell id="bfMk7Fe9KB9iAYGMGyOv-45" value="" style="endArrow=none;html=1;rounded=0;" edge="1" parent="1">
          <mxGeometry width="50" height="50" relative="1" as="geometry">
            <mxPoint x="250" y="-380" as="sourcePoint" />
            <mxPoint x="700" y="-510" as="targetPoint" />
            <Array as="points">
              <mxPoint x="300" y="-400" />
              <mxPoint x="490" y="-490" />
            </Array>
          </mxGeometry>
        </mxCell>
        <mxCell id="bfMk7Fe9KB9iAYGMGyOv-46" value="" style="endArrow=none;html=1;rounded=0;" edge="1" parent="1">
          <mxGeometry width="50" height="50" relative="1" as="geometry">
            <mxPoint x="236" y="-324.99999999999994" as="sourcePoint" />
            <mxPoint x="660" y="-180" as="targetPoint" />
          </mxGeometry>
        </mxCell>
        <mxCell id="bfMk7Fe9KB9iAYGMGyOv-47" value="" style="endArrow=none;html=1;rounded=0;" edge="1" parent="1">
          <mxGeometry width="50" height="50" relative="1" as="geometry">
            <mxPoint x="230" y="-250" as="sourcePoint" />
            <mxPoint x="1000" y="-290" as="targetPoint" />
            <Array as="points">
              <mxPoint x="530" y="-110" />
              <mxPoint x="720" y="-40" />
              <mxPoint x="870" y="-80" />
            </Array>
          </mxGeometry>
        </mxCell>
        <mxCell id="bfMk7Fe9KB9iAYGMGyOv-48" value="EXTENDS" style="html=1;verticalAlign=bottom;endArrow=open;dashed=1;endSize=8;curved=0;rounded=0;" edge="1" parent="1">
          <mxGeometry relative="1" as="geometry">
            <mxPoint x="620" y="-290" as="sourcePoint" />
            <mxPoint x="709" y="-290" as="targetPoint" />
            <Array as="points">
              <mxPoint x="670" y="-240" />
            </Array>
          </mxGeometry>
        </mxCell>
        <mxCell id="bfMk7Fe9KB9iAYGMGyOv-49" value="EXTENDS" style="html=1;verticalAlign=bottom;endArrow=open;dashed=1;endSize=8;curved=0;rounded=0;" edge="1" parent="1">
          <mxGeometry relative="1" as="geometry">
            <mxPoint x="790" y="-410" as="sourcePoint" />
            <mxPoint x="790" y="-460" as="targetPoint" />
          </mxGeometry>
        </mxCell>
        <mxCell id="bfMk7Fe9KB9iAYGMGyOv-50" value="EXTENDS" style="html=1;verticalAlign=bottom;endArrow=open;dashed=1;endSize=8;curved=0;rounded=0;" edge="1" parent="1">
          <mxGeometry relative="1" as="geometry">
            <mxPoint x="790" y="-280" as="sourcePoint" />
            <mxPoint x="790" y="-220" as="targetPoint" />
          </mxGeometry>
        </mxCell>
        <mxCell id="bfMk7Fe9KB9iAYGMGyOv-51" value="EXTENDS" style="html=1;verticalAlign=bottom;endArrow=open;dashed=1;endSize=8;curved=0;rounded=0;" edge="1" parent="1">
          <mxGeometry relative="1" as="geometry">
            <mxPoint x="890" y="-330" as="sourcePoint" />
            <mxPoint x="950" y="-340" as="targetPoint" />
            <Array as="points">
              <mxPoint x="910" y="-290" />
            </Array>
          </mxGeometry>
        </mxCell>
        <mxCell id="bfMk7Fe9KB9iAYGMGyOv-52" value="EXTENDS" style="html=1;verticalAlign=bottom;endArrow=open;dashed=1;endSize=8;curved=0;rounded=0;" edge="1" parent="1">
          <mxGeometry relative="1" as="geometry">
            <mxPoint x="989.71" y="320" as="sourcePoint" />
            <mxPoint x="989.71" y="270" as="targetPoint" />
          </mxGeometry>
        </mxCell>
        <mxCell id="bfMk7Fe9KB9iAYGMGyOv-53" value="EXTENDS" style="html=1;verticalAlign=bottom;endArrow=open;dashed=1;endSize=8;curved=0;rounded=0;" edge="1" parent="1">
          <mxGeometry relative="1" as="geometry">
            <mxPoint x="990" y="430" as="sourcePoint" />
            <mxPoint x="989.71" y="470" as="targetPoint" />
          </mxGeometry>
        </mxCell>
        <mxCell id="bfMk7Fe9KB9iAYGMGyOv-54" value="EXTENDS" style="html=1;verticalAlign=bottom;endArrow=open;dashed=1;endSize=8;curved=0;rounded=0;" edge="1" parent="1">
          <mxGeometry relative="1" as="geometry">
            <mxPoint x="900" y="380" as="sourcePoint" />
            <mxPoint x="830" y="380" as="targetPoint" />
          </mxGeometry>
        </mxCell>
        <mxCell id="bfMk7Fe9KB9iAYGMGyOv-55" value="" style="endArrow=none;html=1;rounded=0;" edge="1" parent="1">
          <mxGeometry width="50" height="50" relative="1" as="geometry">
            <mxPoint x="1120" y="230" as="sourcePoint" />
            <mxPoint x="1384" y="330" as="targetPoint" />
          </mxGeometry>
        </mxCell>
        <mxCell id="bfMk7Fe9KB9iAYGMGyOv-56" value="" style="endArrow=none;html=1;rounded=0;" edge="1" parent="1">
          <mxGeometry width="50" height="50" relative="1" as="geometry">
            <mxPoint x="1100" y="510" as="sourcePoint" />
            <mxPoint x="1384" y="405" as="targetPoint" />
          </mxGeometry>
        </mxCell>
        <mxCell id="bfMk7Fe9KB9iAYGMGyOv-57" value="" style="endArrow=none;html=1;rounded=0;" edge="1" parent="1">
          <mxGeometry width="50" height="50" relative="1" as="geometry">
            <mxPoint x="1070" y="340" as="sourcePoint" />
            <mxPoint x="1384" y="345" as="targetPoint" />
            <Array as="points">
              <mxPoint x="1200" y="310" />
              <mxPoint x="1280" y="340" />
            </Array>
          </mxGeometry>
        </mxCell>
        <mxCell id="bfMk7Fe9KB9iAYGMGyOv-58" value="" style="endArrow=none;html=1;rounded=0;" edge="1" parent="1">
          <mxGeometry width="50" height="50" relative="1" as="geometry">
            <mxPoint x="770" y="420" as="sourcePoint" />
            <mxPoint x="1370" y="440" as="targetPoint" />
            <Array as="points">
              <mxPoint x="990" y="660" />
              <mxPoint x="1190" y="660" />
            </Array>
          </mxGeometry>
        </mxCell>
        <mxCell id="bfMk7Fe9KB9iAYGMGyOv-59" value="" style="endArrow=none;html=1;rounded=0;" edge="1" parent="1">
          <mxGeometry width="50" height="50" relative="1" as="geometry">
            <mxPoint x="120" y="890" as="sourcePoint" />
            <mxPoint x="180" y="890" as="targetPoint" />
          </mxGeometry>
        </mxCell>
        <mxCell id="bfMk7Fe9KB9iAYGMGyOv-60" value="INCLUDE" style="html=1;verticalAlign=bottom;endArrow=open;dashed=1;endSize=8;curved=0;rounded=0;" edge="1" parent="1">
          <mxGeometry relative="1" as="geometry">
            <mxPoint x="325" y="884.8" as="sourcePoint" />
            <mxPoint x="360" y="890" as="targetPoint" />
          </mxGeometry>
        </mxCell>
        <mxCell id="bfMk7Fe9KB9iAYGMGyOv-61" value="" style="ellipse;whiteSpace=wrap;html=1;" vertex="1" parent="1">
          <mxGeometry x="554" y="1040" width="120" height="80" as="geometry" />
        </mxCell>
        <mxCell id="bfMk7Fe9KB9iAYGMGyOv-62" value="Pode cancelar o pagamento se quiser" style="text;html=1;align=center;verticalAlign=middle;whiteSpace=wrap;rounded=0;" vertex="1" parent="1">
          <mxGeometry x="574" y="1065" width="80" height="30" as="geometry" />
        </mxCell>
        <mxCell id="bfMk7Fe9KB9iAYGMGyOv-63" value="INCLUDE" style="html=1;verticalAlign=bottom;endArrow=open;dashed=1;endSize=8;curved=0;rounded=0;" edge="1" parent="1">
          <mxGeometry relative="1" as="geometry">
            <mxPoint x="450" y="930" as="sourcePoint" />
            <mxPoint x="540" y="960" as="targetPoint" />
            <Array as="points">
              <mxPoint x="500" y="990" />
            </Array>
          </mxGeometry>
        </mxCell>
        <mxCell id="bfMk7Fe9KB9iAYGMGyOv-64" value="EXTENDS" style="html=1;verticalAlign=bottom;endArrow=open;dashed=1;endSize=8;curved=0;rounded=0;" edge="1" parent="1">
          <mxGeometry relative="1" as="geometry">
            <mxPoint x="614" y="900" as="sourcePoint" />
            <mxPoint x="614" y="850" as="targetPoint" />
          </mxGeometry>
        </mxCell>
        <mxCell id="bfMk7Fe9KB9iAYGMGyOv-65" value="EXTENDS" style="html=1;verticalAlign=bottom;endArrow=open;dashed=1;endSize=8;curved=0;rounded=0;" edge="1" parent="1">
          <mxGeometry relative="1" as="geometry">
            <mxPoint x="613.83" y="990" as="sourcePoint" />
            <mxPoint x="613.83" y="1030" as="targetPoint" />
          </mxGeometry>
        </mxCell>
        <mxCell id="bfMk7Fe9KB9iAYGMGyOv-66" value="" style="ellipse;whiteSpace=wrap;html=1;" vertex="1" parent="1">
          <mxGeometry x="190" y="985" width="120" height="80" as="geometry" />
        </mxCell>
        <mxCell id="bfMk7Fe9KB9iAYGMGyOv-67" value="Entra na conta já existente" style="text;html=1;align=center;verticalAlign=middle;whiteSpace=wrap;rounded=0;" vertex="1" parent="1">
          <mxGeometry x="220" y="1010" width="60" height="30" as="geometry" />
        </mxCell>
        <mxCell id="bfMk7Fe9KB9iAYGMGyOv-68" value="EXTENDS" style="html=1;verticalAlign=bottom;endArrow=open;dashed=1;endSize=8;curved=0;rounded=0;" edge="1" parent="1">
          <mxGeometry relative="1" as="geometry">
            <mxPoint x="249.70999999999998" y="930" as="sourcePoint" />
            <mxPoint x="249.70999999999998" y="980" as="targetPoint" />
          </mxGeometry>
        </mxCell>
        <mxCell id="bfMk7Fe9KB9iAYGMGyOv-69" value="EXTENDS" style="html=1;verticalAlign=bottom;endArrow=open;dashed=1;endSize=8;curved=0;rounded=0;" edge="1" parent="1">
          <mxGeometry relative="1" as="geometry">
            <mxPoint x="690" y="940" as="sourcePoint" />
            <mxPoint x="770" y="950" as="targetPoint" />
            <Array as="points">
              <mxPoint x="710" y="980" />
            </Array>
          </mxGeometry>
        </mxCell>
        <mxCell id="bfMk7Fe9KB9iAYGMGyOv-70" value="" style="endArrow=none;html=1;rounded=0;" edge="1" parent="1">
          <mxGeometry width="50" height="50" relative="1" as="geometry">
            <mxPoint x="120" y="845" as="sourcePoint" />
            <mxPoint x="200" y="710" as="targetPoint" />
          </mxGeometry>
        </mxCell>
        <mxCell id="bfMk7Fe9KB9iAYGMGyOv-71" value="" style="endArrow=none;html=1;rounded=0;" edge="1" parent="1">
          <mxGeometry width="50" height="50" relative="1" as="geometry">
            <mxPoint x="120" y="860" as="sourcePoint" />
            <mxPoint x="380" y="840" as="targetPoint" />
            <Array as="points">
              <mxPoint x="170" y="800" />
              <mxPoint x="280" y="840" />
            </Array>
          </mxGeometry>
        </mxCell>
        <mxCell id="bfMk7Fe9KB9iAYGMGyOv-72" value="" style="endArrow=none;html=1;rounded=0;" edge="1" parent="1">
          <mxGeometry width="50" height="50" relative="1" as="geometry">
            <mxPoint x="120" y="930" as="sourcePoint" />
            <mxPoint x="520" y="1080" as="targetPoint" />
            <Array as="points">
              <mxPoint x="140" y="1110" />
            </Array>
          </mxGeometry>
        </mxCell>
        <mxCell id="bfMk7Fe9KB9iAYGMGyOv-73" value="" style="endArrow=none;html=1;rounded=0;" edge="1" parent="1">
          <mxGeometry width="50" height="50" relative="1" as="geometry">
            <mxPoint x="80" y="800" as="sourcePoint" />
            <mxPoint x="550" y="760" as="targetPoint" />
            <Array as="points">
              <mxPoint x="110" y="630" />
              <mxPoint x="300" y="590" />
            </Array>
          </mxGeometry>
        </mxCell>
        <mxCell id="bfMk7Fe9KB9iAYGMGyOv-74" value="" style="endArrow=none;html=1;rounded=0;" edge="1" parent="1">
          <mxGeometry width="50" height="50" relative="1" as="geometry">
            <mxPoint x="120" y="920" as="sourcePoint" />
            <mxPoint x="550" y="970" as="targetPoint" />
            <Array as="points">
              <mxPoint x="410" y="1040" />
            </Array>
          </mxGeometry>
        </mxCell>
        <mxCell id="bfMk7Fe9KB9iAYGMGyOv-75" value="" style="endArrow=none;html=1;rounded=0;" edge="1" parent="1">
          <mxGeometry width="50" height="50" relative="1" as="geometry">
            <mxPoint x="60" y="990" as="sourcePoint" />
            <mxPoint x="810" y="960" as="targetPoint" />
            <Array as="points">
              <mxPoint x="90" y="1200" />
              <mxPoint x="730" y="1190" />
            </Array>
          </mxGeometry>
        </mxCell>
        <mxCell id="bfMk7Fe9KB9iAYGMGyOv-76" value="EXTENDS" style="html=1;verticalAlign=bottom;endArrow=open;dashed=1;endSize=8;curved=0;rounded=0;" edge="1" parent="1">
          <mxGeometry relative="1" as="geometry">
            <mxPoint x="1120" y="350" as="sourcePoint" />
            <mxPoint x="1060" y="270" as="targetPoint" />
          </mxGeometry>
        </mxCell>
        <mxCell id="bfMk7Fe9KB9iAYGMGyOv-77" value="EXTENDS" style="html=1;verticalAlign=bottom;endArrow=open;dashed=1;endSize=8;curved=0;rounded=0;" edge="1" parent="1">
          <mxGeometry x="0.5271" y="6" relative="1" as="geometry">
            <mxPoint x="1110" y="370" as="sourcePoint" />
            <mxPoint x="1040" y="470" as="targetPoint" />
            <Array as="points">
              <mxPoint x="1060" y="350" />
              <mxPoint x="1040" y="450" />
            </Array>
            <mxPoint as="offset" />
          </mxGeometry>
        </mxCell>
        <mxCell id="bfMk7Fe9KB9iAYGMGyOv-78" value="Pode deletar algum lanche que não estiver mais disponível ou se foi inserido incorretamente ao sistema" style="shape=note;whiteSpace=wrap;html=1;backgroundOutline=1;darkOpacity=0.05;" vertex="1" parent="1">
          <mxGeometry x="720" y="130" width="129" height="150" as="geometry" />
        </mxCell>
        <mxCell id="bfMk7Fe9KB9iAYGMGyOv-81" value="" style="endArrow=none;dashed=1;html=1;dashPattern=1 3;strokeWidth=2;rounded=0;entryX=1;entryY=1;entryDx=0;entryDy=0;entryPerimeter=0;" edge="1" parent="1" target="bfMk7Fe9KB9iAYGMGyOv-78">
          <mxGeometry width="50" height="50" relative="1" as="geometry">
            <mxPoint x="990" y="300" as="sourcePoint" />
            <mxPoint x="851" y="270" as="targetPoint" />
          </mxGeometry>
        </mxCell>
        <mxCell id="bfMk7Fe9KB9iAYGMGyOv-82" value="Pode atualizar os lanches se caso o estoque esgotar" style="shape=note;whiteSpace=wrap;html=1;backgroundOutline=1;darkOpacity=0.05;" vertex="1" parent="1">
          <mxGeometry x="950" y="-560" width="120" height="115" as="geometry" />
        </mxCell>
        <mxCell id="bfMk7Fe9KB9iAYGMGyOv-83" value="" style="endArrow=none;dashed=1;html=1;dashPattern=1 3;strokeWidth=2;rounded=0;entryX=0;entryY=1;entryDx=0;entryDy=0;entryPerimeter=0;" edge="1" parent="1" target="bfMk7Fe9KB9iAYGMGyOv-82">
          <mxGeometry width="50" height="50" relative="1" as="geometry">
            <mxPoint x="790" y="-430" as="sourcePoint" />
            <mxPoint x="1060" y="-300" as="targetPoint" />
          </mxGeometry>
        </mxCell>
        <mxCell id="bfMk7Fe9KB9iAYGMGyOv-84" value="Pode deletar algum lanche que não estiver mais disponível ou se foi inserido incorretamente ao sistema" style="shape=note;whiteSpace=wrap;html=1;backgroundOutline=1;darkOpacity=0.05;" vertex="1" parent="1">
          <mxGeometry x="930" y="-160" width="140" height="130" as="geometry" />
        </mxCell>
        <mxCell id="bfMk7Fe9KB9iAYGMGyOv-85" value="" style="endArrow=none;dashed=1;html=1;rounded=0;entryX=0;entryY=0.5;entryDx=0;entryDy=0;entryPerimeter=0;exitX=1;exitY=1;exitDx=0;exitDy=0;" edge="1" parent="1" source="bfMk7Fe9KB9iAYGMGyOv-19" target="bfMk7Fe9KB9iAYGMGyOv-84">
          <mxGeometry width="50" height="50" relative="1" as="geometry">
            <mxPoint x="1010" y="30" as="sourcePoint" />
            <mxPoint x="1060" y="-20" as="targetPoint" />
          </mxGeometry>
        </mxCell>
      </root>
    </mxGraphModel>
  </diagram>
</mxfile>
